<svg id="Layer_1" data-name="Layer 1" xmlns="http://www.w3.org/2000/svg" viewBox="0 0 17.35 31.5"><defs><style>.cls-1{fill:none;stroke:#1d1e1b;stroke-linecap:round;stroke-linejoin:round;stroke-width:0.5px;}</style></defs><g id="Group_175" data-name="Group 175"><ellipse id="Ellipse_41" data-name="Ellipse 41" class="cls-1" cx="8.68" cy="1.93" rx="8.41" ry="1.68"/><ellipse id="Ellipse_42" data-name="Ellipse 42" class="cls-1" cx="8.68" cy="8.03" rx="7.97" ry="1.59"/><path id="Path_437" data-name="Path 437" class="cls-1" d="M15.37,27.39c0,.74-3,1.83-6.69,1.83S2,28.13,2,27.39"/><path id="Path_438" data-name="Path 438" class="cls-1" d="M17.09,1.93A53.56,53.56,0,0,1,16,13.84c-1.16,5.37-.67,13.55-.54,15.34A.81.81,0,0,1,15,30a13.44,13.44,0,0,1-6.33,1.27"/><path id="Path_439" data-name="Path 439" class="cls-1" d="M.26,1.93A53,53,0,0,0,1.34,13.84c1.16,5.37.66,13.55.54,15.34a.8.8,0,0,0,.47.78,13.39,13.39,0,0,0,6.33,1.27"/><path id="Path_440" data-name="Path 440" class="cls-1" d="M3,12.09s.94,2.48,1,7.84c0,4.17,0,6.2,0,6.2"/></g></svg>