<svg xmlns="http://www.w3.org/2000/svg" width="16.1" height="27.387"><g data-name="Group 293"><path data-name="Path 35" d="M3.718 21.502l-1.365-4.773L.914 7.694l.85-4.131 2.184-1.047L6.16 1.337 8.853.704l2.041 1.439 2 .377 1.9.523v6.684l-.838 7.006-.793 3.83v6.236L2.71 26.156z" fill="#fff"/><path data-name="Path 34" d="M14.098 23.4a6.782 6.782 0 01.135-4.784l.112-.274a24 24 0 001.4-13 3.012 3.012 0 00.049-.539 3.338 3.338 0 00-3.446-3.21 3.7 3.7 0 00-.794.086 4.5 4.5 0 00-7.027 0 3.7 3.7 0 00-.794-.086 3.338 3.338 0 00-3.446 3.21 3.007 3.007 0 00.049.539 23.979 23.979 0 001.4 13l.112.274a6.782 6.782 0 01.145 4.784l-.16.462a2.241 2.241 0 00.056 2.323 2.6 2.6 0 002.235 1.2h7.846a2.6 2.6 0 002.235-1.2 2.241 2.241 0 00.056-2.323zM3.737 3.2a1.8 1.8 0 01.783.175.919.919 0 00.674.044A.843.843 0 005.693 3a2.669 2.669 0 014.7 0 .842.842 0 00.5.423.919.919 0 00.674-.044 1.805 1.805 0 01.783-.175 1.631 1.631 0 011.723 1.557h-2.58a.874.874 0 00-.861.85v3.318a.864.864 0 01-1.723 0V5.564a.834.834 0 00-.861-.8h-6.03A1.631 1.631 0 013.737 3.2zm-1.85 3.565V6.76l.039-.345h5.255v2.514a2.591 2.591 0 005.169 0V6.415h1.809l.039.345v.009a21.89 21.89 0 01-1.466 11l-.112.274a8.3 8.3 0 00-.5 4.524H3.967a8.3 8.3 0 00-.5-4.524l-.112-.274a21.889 21.889 0 01-1.468-11zm10.825 18.613a.855.855 0 01-.745.4H4.121a.855.855 0 01-.745-.4c-.273-.438-.027-.674.156-1.205h9.023c.198.574.421.786.157 1.209z" fill="#000"/></g></svg>
