<svg id="Layer_1" data-name="Layer 1" xmlns="http://www.w3.org/2000/svg" viewBox="0 0 23.32 23.12"><defs><style>.cls-1{fill:none;stroke:#86bf70;stroke-miterlimit:10;stroke-width:1.5px;}</style></defs><g id="Group_449" data-name="Group 449"><path id="Path_660" data-name="Path 660" class="cls-1" d="M1,8.48l2.2-5.77A3,3,0,0,1,6,.75H17.3a3,3,0,0,1,2.75,1.74l2.23,4.72a3.08,3.08,0,0,1,.29,1.3V19.33a3,3,0,0,1-3,3H3.79a3,3,0,0,1-3-3h0V9.57A3.14,3.14,0,0,1,1,8.48Z"/><line id="Line_117" data-name="Line 117" class="cls-1" x1="0.95" y1="8.48" x2="22.57" y2="8.48"/><line id="Line_118" data-name="Line 118" class="cls-1" x1="11.66" y1="0.75" x2="11.66" y2="8.48"/><path id="Path_661" data-name="Path 661" class="cls-1" d="M17,13.36"/></g></svg>