<svg id="Layer_1" data-name="Layer 1" xmlns="http://www.w3.org/2000/svg" viewBox="0 0 25 20.83"><defs><style>.cls-1,.cls-3,.cls-4{fill:none;}.cls-1,.cls-2,.cls-3,.cls-4{stroke:#86bf70;}.cls-1,.cls-2,.cls-3{stroke-miterlimit:10;}.cls-2{fill:#fff;}.cls-3,.cls-4{stroke-linecap:round;}.cls-4{stroke-linejoin:round;}</style></defs><g id="Group_445" data-name="Group 445"><path id="Path_660" data-name="Path 660" class="cls-1" d="M.68,7.43l2-5.17A2.73,2.73,0,0,1,5.2.5H15.34A2.73,2.73,0,0,1,17.8,2.06l2,4.23a2.64,2.64,0,0,1,.27,1.17v9.7a2.72,2.72,0,0,1-2.73,2.72H3.23A2.72,2.72,0,0,1,.5,17.16V8.4A2.69,2.69,0,0,1,.68,7.43Z"/><line id="Line_117" data-name="Line 117" class="cls-1" x1="0.68" y1="7.43" x2="20.06" y2="7.43"/><line id="Line_118" data-name="Line 118" class="cls-1" x1="10.28" y1="0.5" x2="10.28" y2="7.43"/><circle id="Ellipse_79" data-name="Ellipse 79" class="cls-2" cx="17.14" cy="12.97" r="7.36"/><path id="Path_661" data-name="Path 661" class="cls-1" d="M15,11.8"/><path id="Path_662" data-name="Path 662" class="cls-3" d="M14.54,11a3.4,3.4,0,1,1-.77,2.16"/><path id="Path_663" data-name="Path 663" class="cls-4" d="M14.65,9.31,14.05,11l1.78.66"/></g></svg>