<svg id="Layer_1" data-name="Layer 1" xmlns="http://www.w3.org/2000/svg" viewBox="0 0 30.32 31.42"><defs><style>.cls-1{fill:none;stroke:#1d1e1b;stroke-linecap:round;stroke-linejoin:round;stroke-width:0.5px;}</style></defs><g id="Group_512" data-name="Group 512"><g id="Group_488" data-name="Group 488"><path id="Path_483" data-name="Path 483" class="cls-1" d="M7.11,8.28V7.72a5.11,5.11,0,0,1,.54-.33c.29-.15.19-1,.12-1.59S7.24,1.32,7.51.43a2.54,2.54,0,0,1,2,0,11.64,11.64,0,0,1,0,3.12c-.09.59-.31,2.52-.31,2.52a4.09,4.09,0,0,0,0,1.21,1.6,1.6,0,0,1,.6.37l0,.54"/><line id="Line_31" data-name="Line 31" class="cls-1" x1="7.36" y1="8.05" x2="7.36" y2="10.22"/><path id="Path_484" data-name="Path 484" class="cls-1" d="M8.81,10.65A1.56,1.56,0,0,0,8.5,7.57H8.39a1.61,1.61,0,0,0-1.5,1.62A1.49,1.49,0,0,0,8,10.61"/><line id="Line_32" data-name="Line 32" class="cls-1" x1="9.52" y1="8.05" x2="9.52" y2="10.22"/><path id="Path_485" data-name="Path 485" class="cls-1" d="M8.76,12.47V10.64a.31.31,0,0,0-.31-.31H8.36a.32.32,0,0,0-.31.31v1.83"/><ellipse id="Ellipse_46" data-name="Ellipse 46" class="cls-1" cx="8.4" cy="12.51" rx="0.35" ry="0.17"/><line id="Line_33" data-name="Line 33" class="cls-1" x1="9.58" y1="1.68" x2="7.43" y2="1.68"/><line id="Line_34" data-name="Line 34" class="cls-1" x1="9.15" y1="6.14" x2="7.84" y2="6.14"/><path id="Path_486" data-name="Path 486" class="cls-1" d="M7.52,4.72H6.46s-.36.08-.37.2c-.75,0-3.31.18-3.31.18a1.29,1.29,0,0,0-.5-.24A3,3,0,0,0,1.1,4.7c-.3.06-.83.13-.85.4V27.78s0,.38.7.61a1.37,1.37,0,0,0,.75,1.15c0,.5-.06,1.1.1,1.22s.33.15.8.19S8.9,31,8.9,31"/><path id="Path_487" data-name="Path 487" class="cls-1" d="M2.72,5.08a2.21,2.21,0,0,1,.39,1.34V28.3H2.25a.51.51,0,0,0-.35.13.4.4,0,0,0-.12.29l0,1"/><path id="Path_488" data-name="Path 488" class="cls-1" d="M1.45,4.72a1.85,1.85,0,0,1,.37,1.21V28.5s-.17.55.7.65,11.49,0,11.49,0,1.23,0,1.23-.44"/><path id="Path_489" data-name="Path 489" class="cls-1" d="M6.39,4.78a15.58,15.58,0,0,1,.14,1.81,7.06,7.06,0,0,1,0,.92V27.92"/><path id="Path_490" data-name="Path 490" class="cls-1" d="M9.49,4.72h1.07s.36.08.37.2c.75,0,3.31.18,3.31.18a1.25,1.25,0,0,1,.49-.24,3,3,0,0,1,1.19-.16c.3.06.82.13.85.4V27.78s0,.38-.71.61a1.33,1.33,0,0,1-.75,1.15c0,.5.07,1.1-.09,1.22s-.33.15-.8.19-6.3.07-6.3.07"/><path id="Path_491" data-name="Path 491" class="cls-1" d="M14.29,5.08a2.21,2.21,0,0,0-.38,1.34V28.3h.86a.47.47,0,0,1,.34.13.41.41,0,0,1,.13.29l0,1"/><path id="Path_492" data-name="Path 492" class="cls-1" d="M15.2,28.5V5.92a1.84,1.84,0,0,1,.37-1.2"/><path id="Path_493" data-name="Path 493" class="cls-1" d="M10.63,4.78a15.58,15.58,0,0,0-.14,1.81,4.71,4.71,0,0,0,0,.92V27.92"/><line id="Line_35" data-name="Line 35" class="cls-1" x1="3.12" y1="27.93" x2="13.89" y2="27.93"/><line id="Line_36" data-name="Line 36" class="cls-1" x1="7.09" y1="7.68" x2="6.57" y2="7.68"/><line id="Line_37" data-name="Line 37" class="cls-1" x1="7.76" y1="10.52" x2="6.57" y2="10.52"/><path id="Path_494" data-name="Path 494" class="cls-1" d="M9.23,10.52h2.1s.51,0,.51-.65V8.18s0-.5-.56-.5H9.82"/><path id="Path_495" data-name="Path 495" class="cls-1" d="M3.27,29.18a.37.37,0,0,1-.33-.42.36.36,0,0,1,.18-.28.55.55,0,0,1,.22-.1,1.4,1.4,0,0,1,.41-.06H8.5"/><path id="Path_496" data-name="Path 496" class="cls-1" d="M13.68,29.16a.38.38,0,0,0,.35-.39.37.37,0,0,0-.17-.29.62.62,0,0,0-.22-.1,1.4,1.4,0,0,0-.41-.06H8.48"/><path id="Path_497" data-name="Path 497" class="cls-1" d="M15.27,28.54a3.39,3.39,0,0,0,.77-.15"/><path id="Path_498" data-name="Path 498" class="cls-1" d="M1.74,28.54A3.39,3.39,0,0,1,1,28.39"/><g id="Group_208" data-name="Group 208"><path id="Path_499" data-name="Path 499" class="cls-1" d="M7.94,20.21h0a2.2,2.2,0,0,0,1.11,0h0a.14.14,0,0,0,.1-.13V14.83a.13.13,0,0,0-.12-.13l-.25,0a2,2,0,0,0-.69,0l-.18,0a.14.14,0,0,0-.11.14v5.25A.13.13,0,0,0,7.94,20.21Z"/><line id="Line_38" data-name="Line 38" class="cls-1" x1="7.87" y1="19.26" x2="9.17" y2="19.26"/><line id="Line_39" data-name="Line 39" class="cls-1" x1="8.51" y1="20.27" x2="8.51" y2="19.26"/><line id="Line_40" data-name="Line 40" class="cls-1" x1="7.89" y1="15.22" x2="9.1" y2="15.22"/><line id="Line_41" data-name="Line 41" class="cls-1" x1="7.89" y1="15.8" x2="9.1" y2="15.8"/><line id="Line_42" data-name="Line 42" class="cls-1" x1="7.89" y1="16.37" x2="9.1" y2="16.37"/><line id="Line_43" data-name="Line 43" class="cls-1" x1="7.89" y1="16.94" x2="9.1" y2="16.94"/><line id="Line_44" data-name="Line 44" class="cls-1" x1="7.89" y1="17.51" x2="9.1" y2="17.51"/><line id="Line_45" data-name="Line 45" class="cls-1" x1="7.89" y1="18.09" x2="9.1" y2="18.09"/><line id="Line_46" data-name="Line 46" class="cls-1" x1="7.89" y1="18.66" x2="9.1" y2="18.66"/></g></g><g id="Group_489" data-name="Group 489"><g id="Group_259" data-name="Group 259"><g id="Group_108" data-name="Group 108"><path id="Path_272" data-name="Path 272" class="cls-1" d="M20.47,30.64s.4.34,2.81.46,6.35.12,6.71-.5c.05-1.44,0-2.37,0-2.37"/><path id="Path_273" data-name="Path 273" class="cls-1" d="M20.47,30.58V21.17a.71.71,0,0,1,.6-.5c1.36-.2,4.49-.2,4.49-.2a35.16,35.16,0,0,1,4.1.29c.33.17.4.37.38.77s0,6.7,0,6.7"/><path id="Path_274" data-name="Path 274" class="cls-1" d="M20.75,20.76a.52.52,0,0,1-.28-.43c0-.34,0-1.38,0-1.38s.42-.91,2.05-1"/><path id="Path_275" data-name="Path 275" class="cls-1" d="M20.52,19.3l.71-.05a1.26,1.26,0,0,1,.46-.73A11.63,11.63,0,0,1,25,17c1.45,0,3.56.18,3.56.18a2.11,2.11,0,0,1,1.55,1.68c0,.79-.07,1.5-.07,1.5a.46.46,0,0,1-.3.35"/><path id="Path_276" data-name="Path 276" class="cls-1" d="M24.88,17.78a.6.6,0,0,0-.64.56v.08c0,.65.91.62.91.62l3.45.12a.38.38,0,0,0,.25-.08.62.62,0,0,0,.26-.59c0-.57-.65-.6-.65-.6Z"/><path id="Path_277" data-name="Path 277" class="cls-1" d="M22.43,29.81a.33.33,0,0,0,.31.35h0l.75,0a.33.33,0,0,0,.33-.3c0-.3-.3-.35-.41-.35l-.66,0a.35.35,0,0,0-.33.3Z"/><path id="Path_278" data-name="Path 278" class="cls-1" d="M26.35,17.87s-.07.59.68.61a1.44,1.44,0,0,1,1.16.64"/></g><path id="Path_279" data-name="Path 279" class="cls-1" d="M28.86,28.43a17.44,17.44,0,0,1-2.16.16,31,31,0,0,1-6.23-.36l0,2.41"/></g></g></g></svg>