<svg id="Layer_1" data-name="Layer 1" xmlns="http://www.w3.org/2000/svg" viewBox="0 0 24 23.99"><defs><style>.cls-1{fill:#86bf70;}</style></defs><g id="Group_447" data-name="Group 447"><path id="Path_664" data-name="Path 664" class="cls-1" d="M12.35,0l.45.05a6.61,6.61,0,0,1,2.83,1A6.75,6.75,0,0,1,18.15,4a6.65,6.65,0,0,1,.59,3.11,6.62,6.62,0,0,1-1.26,3.61,6.71,6.71,0,0,1-2.31,2,6.49,6.49,0,0,1-2.19.72A6.77,6.77,0,0,1,5.66,9.07a6.55,6.55,0,0,1-.38-2.91,6.72,6.72,0,0,1,5.55-6c.25,0,.5-.06.74-.09l.07,0ZM12,12A5.25,5.25,0,1,0,6.75,6.75,5.25,5.25,0,0,0,12,12Z"/><path id="Path_665" data-name="Path 665" class="cls-1" d="M12,24H1.55a1.5,1.5,0,0,1-1.07-.4,1.44,1.44,0,0,1-.48-1c0-.65,0-1.3,0-1.94a5.47,5.47,0,0,1,.5-2.06,6,6,0,0,1,3.41-3.19A5.38,5.38,0,0,1,5.87,15c.67,0,1.33,0,2,.06a7.53,7.53,0,0,1,2.1.42,4.79,4.79,0,0,0,1.41.24c.46,0,.92,0,1.39,0a5.28,5.28,0,0,0,1.51-.31,7,7,0,0,1,1.57-.31A20.31,20.31,0,0,1,18.06,15a6,6,0,0,1,5.79,4.65A6,6,0,0,1,24,21v1.49A1.5,1.5,0,0,1,22.78,24l-.35,0Zm10.5-1.5c0-.54,0-1.08,0-1.62a4.38,4.38,0,0,0-.29-1.48,4.56,4.56,0,0,0-1.87-2.24,4.22,4.22,0,0,0-2.24-.64c-.56,0-1.11,0-1.67,0a8.24,8.24,0,0,0-2,.36,8.15,8.15,0,0,1-1.21.27,11.52,11.52,0,0,1-1.66.06,6.79,6.79,0,0,1-1.95-.31,7.89,7.89,0,0,0-1.38-.31c-.52-.05-1-.09-1.58-.11a7.49,7.49,0,0,0-1.16,0,4.24,4.24,0,0,0-2.47,1.08,4.4,4.4,0,0,0-1.54,3.31c0,.5,0,1,0,1.5v.07Z"/></g></svg>