<svg id="Layer_1" data-name="Layer 1" xmlns="http://www.w3.org/2000/svg" viewBox="0 0 34.19 34.19"><defs><style>.cls-1{fill:#dbdbdb;}</style></defs><path id="Path_468" data-name="Path 468" class="cls-1" d="M34.19,1.91A1.77,1.77,0,0,0,33.62.54,1.92,1.92,0,0,0,32.28,0H1.91A1.84,1.84,0,0,0,0,1.75V32.28a1.92,1.92,0,0,0,.54,1.34,1.77,1.77,0,0,0,1.37.57H18.24V20.91H13.82V15.8h4.42V12A6.22,6.22,0,0,1,23.8,5.2a6.49,6.49,0,0,1,1.08,0c1.58,0,2.9,0,4,.16V10H26.1a2.62,2.62,0,0,0-2.06.69,2.87,2.87,0,0,0-.45,1.83V15.8H28.7L28,20.91H23.59V34.19h8.7a1.77,1.77,0,0,0,1.37-.57,1.86,1.86,0,0,0,.53-1.34Z"/></svg>