<svg id="Layer_1" data-name="Layer 1" xmlns="http://www.w3.org/2000/svg" viewBox="0 0 13.48 25.43"><defs><style>.cls-1{fill:none;stroke:#000;}</style></defs><path id="Path_692" data-name="Path 692" class="cls-1" d="M4.38,16.49A8.81,8.81,0,0,1,5,13a7.89,7.89,0,0,1,2.25-2.84C8,9.47,8.56,9,8.85,8.71a4.9,4.9,0,0,0,.83-1.14A3.12,3.12,0,0,0,10.09,6a2.75,2.75,0,0,0-.85-2.09,3.39,3.39,0,0,0-2.42-.8,3.16,3.16,0,0,0-2.53,1,4.36,4.36,0,0,0-1,2.45H.5A6.09,6.09,0,0,1,.86,4.53a7.42,7.42,0,0,1,1-2,4.92,4.92,0,0,1,2-1.5,7.3,7.3,0,0,1,3-.56A6.56,6.56,0,0,1,11.33,2,4.94,4.94,0,0,1,13,5.85a8.72,8.72,0,0,1-.05.9,3.43,3.43,0,0,1-.22.85c-.12.29-.2.52-.26.7A2.34,2.34,0,0,1,12,9c-.14.19-.28.38-.4.58a3.65,3.65,0,0,1-.53.58,6.4,6.4,0,0,0-.49.49s-.24.23-.6.55l-.55.47a7.15,7.15,0,0,0-1.78,2.27,6.69,6.69,0,0,0-.53,2.76v1.35H4.38ZM5.8,24.93a2.07,2.07,0,0,1-1.46-.6,1.92,1.92,0,0,1-.61-1.44,2,2,0,0,1,.6-1.45,2,2,0,0,1,1.47-.6,2,2,0,0,1,2,2.05,2,2,0,0,1-.6,1.44A1.9,1.9,0,0,1,5.8,24.93Z"/></svg>