<svg id="Layer_1" data-name="Layer 1" xmlns="http://www.w3.org/2000/svg" viewBox="0 0 20.51 20.5"><defs><style>.cls-1{fill:none;stroke:#000;stroke-miterlimit:10;stroke-width:2px;}</style></defs><g id="U5vEU4"><g id="Group_409" data-name="Group 409"><path id="Path_632" data-name="Path 632" class="cls-1" d="M10.26,1h8.25a.87.87,0,0,1,.94.6.85.85,0,0,1-.24,1q-1.52,1.5-3,3c-1.06,1-2.11,2.11-3.18,3.16a.66.66,0,0,0-.2.49c0,3.09,0,6.17,0,9.26a.86.86,0,0,1-.68,1,.83.83,0,0,1-.82-.22q-1.7-1.68-3.38-3.37a1,1,0,0,1-.25-.73V9.22a.58.58,0,0,0-.19-.46L1.31,2.59A.9.9,0,0,1,1.94,1Z"/></g></g></svg>