<svg id="Layer_1" data-name="Layer 1" xmlns="http://www.w3.org/2000/svg" viewBox="0 0 10.41 29.6"><defs><style>.cls-1{fill:none;stroke:#1d1e1b;stroke-linecap:round;stroke-linejoin:round;stroke-width:0.5px;}</style></defs><g id="Group_283" data-name="Group 283"><path id="Path_549" data-name="Path 549" class="cls-1" d="M1.91,18.6V17.25a4.26,4.26,0,0,1,1.31-.82c.75-.27.45-2.47.29-3.86S2.39,2.81,2.87,1.26c1-1.23,3.68-1.5,4.8.1.48,1.39.22,4.38,0,5.82s-.75,6.14-.75,6.14a11.69,11.69,0,0,0,0,3.07,2.81,2.81,0,0,1,1.47.8l.05,1.31"/><path id="Path_550" data-name="Path 550" class="cls-1" d="M2.83,4.19s1.52-1.13,5-.05"/><path id="Path_551" data-name="Path 551" class="cls-1" d="M3.77,14.06a3.9,3.9,0,0,1,3,0"/><line id="Line_73" data-name="Line 73" class="cls-1" x1="2.52" y1="18.06" x2="2.52" y2="23.35"/><path id="Path_552" data-name="Path 552" class="cls-1" d="M6.06,24.39S8.93,23.62,9,20.82c0-3.63-3.67-3.94-3.67-3.94H5s-3.7.3-3.67,3.94A3.65,3.65,0,0,0,4,24.29"/><line id="Line_74" data-name="Line 74" class="cls-1" x1="7.78" y1="18.06" x2="7.78" y2="23.35"/><path id="Path_553" data-name="Path 553" class="cls-1" d="M5.92,28.83V24.36a.75.75,0,0,0-.74-.75H5a.75.75,0,0,0-.75.75h0v4.47"/><ellipse id="Ellipse_60" data-name="Ellipse 60" class="cls-1" cx="5.05" cy="28.92" rx="0.86" ry="0.42"/><path id="Path_554" data-name="Path 554" class="cls-1" d="M7,26.28h3.12V12.91H7"/><path id="Path_555" data-name="Path 555" class="cls-1" d="M3.36,12.91H.25V26.28H3"/></g></svg>