<svg id="Layer_1" data-name="Layer 1" xmlns="http://www.w3.org/2000/svg" viewBox="0 0 34.19 34.19"><defs><style>.cls-1{fill:#dbdbdb;}</style></defs><path id="Path_469" data-name="Path 469" class="cls-1" d="M30.45,27.17a16,16,0,0,0,.61-4.12c.05-1.12.08-2.7.08-4.74V15.87c0-2.08,0-3.66-.08-4.73A15.16,15.16,0,0,0,30.45,7a5.51,5.51,0,0,0-3.28-3.28,15.16,15.16,0,0,0-4.12-.61c-1.12,0-2.7-.08-4.73-.08H15.87c-2,0-3.61,0-4.73.08A16,16,0,0,0,7,3.74,5.51,5.51,0,0,0,3.74,7a15.16,15.16,0,0,0-.61,4.12c0,1.12-.08,2.7-.08,4.73v2.44c0,2,0,3.62.08,4.74a16,16,0,0,0,.61,4.12A5.81,5.81,0,0,0,7,30.45a16,16,0,0,0,4.12.61c1.12.05,2.7.07,4.73.08h2.45c2.08,0,3.66,0,4.73-.08a15.56,15.56,0,0,0,4.12-.61A5.81,5.81,0,0,0,30.45,27.17ZM34.11,10q.07,2.13.08,7.1t-.11,7.13A14.76,14.76,0,0,1,33.43,28,8.93,8.93,0,0,1,28,33.43a14.76,14.76,0,0,1-3.78.65q-2.18.11-7.13.11T10,34.08a12.54,12.54,0,0,1-3.78-.73,8.14,8.14,0,0,1-3.32-2A9,9,0,0,1,.76,28a14.76,14.76,0,0,1-.65-3.78Q0,22.06,0,17.1T.11,10A14.76,14.76,0,0,1,.76,6.18,8.93,8.93,0,0,1,6.18.76,14.32,14.32,0,0,1,10,.12Q12.14,0,17.09,0t7.14.12A14.32,14.32,0,0,1,28,.76a8.93,8.93,0,0,1,5.42,5.42A15.48,15.48,0,0,1,34.11,10Zm-5.8-2.06a2.4,2.4,0,0,1-.64,1.45,1.9,1.9,0,0,1-1.42.61,2.06,2.06,0,1,1,2.06-2.06ZM17.1,22.82a5.74,5.74,0,1,0-4.05-1.68,5.54,5.54,0,0,0,4.05,1.68Zm0-14.5A8.52,8.52,0,0,1,21.48,9.5a8.76,8.76,0,0,1,0,15.18A8.77,8.77,0,0,1,12.71,9.5,8.55,8.55,0,0,1,17.1,8.32Z"/></svg>