<svg id="Layer_1" data-name="Layer 1" xmlns="http://www.w3.org/2000/svg" viewBox="0 0 16.85 24.41"><defs><style>.cls-1{fill:none;stroke:#1d1e1b;stroke-linecap:round;stroke-linejoin:round;stroke-width:0.5px;}</style></defs><g id="Group_262" data-name="Group 262"><g id="Group_259" data-name="Group 259"><g id="Group_108" data-name="Group 108"><path id="Path_272" data-name="Path 272" class="cls-1" d="M.34,23.28s.67.57,4.75.78,10.75.2,11.36-.85c.09-2.44.06-4,.06-4"/><path id="Path_273" data-name="Path 273" class="cls-1" d="M.34,23.18V7.24a1.15,1.15,0,0,1,1-.85C3.66,6.05,9,6.05,9,6.05a57.52,57.52,0,0,1,6.94.48c.55.29.67.63.64,1.31s0,11.35,0,11.35"/><path id="Path_274" data-name="Path 274" class="cls-1" d="M.81,6.54a.84.84,0,0,1-.47-.72c0-.59,0-2.34,0-2.34s.71-1.54,3.47-1.66"/><path id="Path_275" data-name="Path 275" class="cls-1" d="M.42,4.07,1.62,4a2.1,2.1,0,0,1,.79-1.22A19.46,19.46,0,0,1,7.94.25c2.45,0,6,.29,6,.29A3.62,3.62,0,0,1,16.6,3.4c-.06,1.34-.12,2.53-.12,2.53a.85.85,0,0,1-.5.6"/><path id="Path_276" data-name="Path 276" class="cls-1" d="M7.8,1.5a1,1,0,0,0-1.08.94.33.33,0,0,0,0,.14c.06,1.11,1.54,1,1.54,1l5.84.2a.74.74,0,0,0,.43-.12,1.1,1.1,0,0,0,.43-1c0-1-1.1-1-1.1-1Z"/><path id="Path_277" data-name="Path 277" class="cls-1" d="M3.66,21.87a.55.55,0,0,0,.52.59h0l1.27,0A.57.57,0,0,0,6,22c0-.51-.51-.6-.7-.6l-1.11,0a.57.57,0,0,0-.55.51Z"/><path id="Path_278" data-name="Path 278" class="cls-1" d="M10.29,1.65s-.13,1,1.15,1a2.47,2.47,0,0,1,2,1.07"/></g><path id="Path_279" data-name="Path 279" class="cls-1" d="M14.54,19.53a27.88,27.88,0,0,1-3.65.27c-3.06,0-8.78,0-10.55-.61L.25,23.27"/></g></g></svg>