<svg id="Layer_1" data-name="Layer 1" xmlns="http://www.w3.org/2000/svg" viewBox="0 0 23.88 34.16"><defs><style>.cls-1{fill:none;stroke:#000;stroke-miterlimit:10;}</style></defs><g id="Group_246" data-name="Group 246"><g id="Group_220" data-name="Group 220"><g id="Group_219" data-name="Group 219"><path id="Path_504" data-name="Path 504" class="cls-1" d="M.83,32.43s.93.8,6.58,1.09,14.92.28,15.77-1.18c.12-3.39.08-5.57.08-5.57"/><path id="Path_505" data-name="Path 505" class="cls-1" d="M.83,32.29V10.19A1.61,1.61,0,0,1,2.24,9c3.19-.47,10.55-.47,10.55-.47s7.56.16,9.62.67c.77.4.93.87.89,1.81s0,15.74,0,15.74"/><path id="Path_506" data-name="Path 506" class="cls-1" d="M1.32,9.21a1.18,1.18,0,0,1-.66-.83S.58,6.72.5,4.86A4.86,4.86,0,0,1,4,.91S8.67.54,11.89.5H12c3.22,0,7.94.41,7.94.41a4.86,4.86,0,0,1,3.45,4c-.08,1.86-.16,3.52-.16,3.52a1.18,1.18,0,0,1-.66.83"/><rect id="Rectangle_98" data-name="Rectangle 98" class="cls-1" x="7.07" y="3.03" width="10.82" height="2.78" rx="0.87"/></g><path id="Path_507" data-name="Path 507" class="cls-1" d="M23,27.24a53.61,53.61,0,0,1-5.66.38c-4.74,0-13.59,0-16.35-.85L.87,32.42"/></g></g></svg>