<svg id="Layer_1" data-name="Layer 1" xmlns="http://www.w3.org/2000/svg" viewBox="0 0 284.75 66.45"><defs><style>.cls-1{fill:#1d1e1b;}</style></defs><path id="Path_516" data-name="Path 516" d="M91.42,50.56H97a.33.33,0,0,0,.35-.3V32.14H104a.33.33,0,0,0,.35-.3v-5a.32.32,0,0,0-.29-.34H97.36v-.41c0-3.52.45-5,3.23-5a5.13,5.13,0,0,1,2.77.59s0,0,.18,0,.28,0,.29-.07l1.4-3.93a1,1,0,0,0,0-.3s0-.12-.22-.3a10,10,0,0,0-5.52-1.42c-5.35,0-8.45,1.71-8.45,10.47v.39H86.41a.33.33,0,0,0-.35.29v5a.33.33,0,0,0,.29.35h4.73V50.21a.32.32,0,0,0,.3.34Z"/><path id="Path_517" data-name="Path 517" d="M247.39,50.56H253a.33.33,0,0,0,.35-.3V32.14H260a.33.33,0,0,0,.35-.3v-5a.32.32,0,0,0-.3-.34h-6.67v-.41c0-3.52.45-5,3.23-5a5.08,5.08,0,0,1,2.76.59s0,0,.19,0,.28,0,.29-.07l1.4-3.93a1,1,0,0,0,0-.3s0-.12-.22-.3a10,10,0,0,0-5.52-1.42c-5.35,0-8.45,1.71-8.45,10.47v.39h-4.68a.32.32,0,0,0-.34.29v5a.33.33,0,0,0,.29.35h4.73V50.21a.32.32,0,0,0,.29.34Z"/><path id="Path_518" data-name="Path 518" d="M219.88,43.29c0,6.69,5.37,7.69,8.57,7.69,1.39,0,4.8-.28,6.5-2.83l.58-.87.48,3a.61.61,0,0,0,.6.4h3.83a.31.31,0,0,0,.34-.29V37c0-2.89-.66-6.8-3.82-9s-8.21-2.67-12.35-1.09l-.82.32c-.06,0-.68.28-.76.34a.21.21,0,0,0-.09.26,1.16,1.16,0,0,0,.12.44L224.6,32c.1.23.23.24.25.24h0l.08,0a12.52,12.52,0,0,1,4.27-.88c3.66,0,5.22,1.59,5.22,5.32v.8l-.65-.46a10.06,10.06,0,0,0-5.47-1.31C225.17,35.72,219.88,36.71,219.88,43.29Zm10.51-3.11c2.73.1,3.6,1.27,4.05,1.82l.07.1v2.17l-.11.12A6.69,6.69,0,0,1,230.21,46c-3.92,0-4.75-1.73-4.75-3.17C225.46,41.81,226.11,40,230.39,40.18Z"/><path id="Path_519" data-name="Path 519" d="M101.73,16.39Z"/><path id="Path_520" data-name="Path 520" d="M267.84,11.08"/><path id="Path_521" data-name="Path 521" d="M186.65,50.67c9.76,0,16.84-7.32,16.84-17.4s-7.24-17.66-16.84-17.66H173.48a.33.33,0,0,0-.35.29V50.32a.32.32,0,0,0,.29.35h13.23Zm-7.21-29.31h6.08c6.64,0,11.65,5.2,11.65,12.1A11.26,11.26,0,0,1,186.3,45.11h-6.86Z"/><path id="Path_522" data-name="Path 522" d="M40.57,35.69a11.81,11.81,0,0,0,3.16-8.53c-.06-6.68-4.41-11.52-10.36-11.52H19.43a.3.3,0,0,0-.25.09.31.31,0,0,0-.09.25l.28,34.15a.32.32,0,0,0,.3.35H25.3a.38.38,0,0,0,.25-.09.34.34,0,0,0,.09-.25l-.1-11.59h8A9.8,9.8,0,0,0,40.57,35.69ZM25.5,32.78l-.09-11.06H32.8c2.23,0,4.62,1.44,4.66,5.5A5.94,5.94,0,0,1,36,31.53a4.36,4.36,0,0,1-3.09,1.25Z"/><path id="Path_523" data-name="Path 523" d="M164.26,50.52a11.1,11.1,0,0,0,4.54-.59.51.51,0,0,0,.14-.26,1.06,1.06,0,0,0,0-.25l-1-4.36a.51.51,0,0,0-.29-.19.76.76,0,0,0-.26,0l-.12,0a12.2,12.2,0,0,1-2,.13c-2.68,0-2.8-1.79-2.8-6.19V32.14h5.81a.32.32,0,0,0,.35-.28v-5a.32.32,0,0,0-.29-.34H162.4V15.94a.31.31,0,0,0-.29-.34h-5.64a.32.32,0,0,0-.34.29V26.5H153a.32.32,0,0,0-.35.29v5a.32.32,0,0,0,.29.34h3.17v8.11C156.13,48.77,159.39,50.52,164.26,50.52Z"/><path id="Path_524" data-name="Path 524" d="M274.55,50.52a11.1,11.1,0,0,0,4.54-.59.51.51,0,0,0,.14-.26,1.06,1.06,0,0,0,0-.25l-1-4.36a.48.48,0,0,0-.29-.19.76.76,0,0,0-.26,0l-.12,0a12.15,12.15,0,0,1-2,.13c-2.69,0-2.8-1.79-2.8-6.19V32.14h5.8a.32.32,0,0,0,.35-.28v-5a.32.32,0,0,0-.29-.34H272.7V15.94a.32.32,0,0,0-.29-.34h-5.65a.31.31,0,0,0-.34.29V26.5h-3.11a.32.32,0,0,0-.35.29.09.09,0,0,0,0,.05v5a.3.3,0,0,0,.28.34h3.17v8.11C266.42,48.77,269.67,50.52,274.55,50.52Z"/><path id="Path_525" data-name="Path 525" d="M69.59,26.49a.32.32,0,0,0-.34.3V50.21a.31.31,0,0,0,.29.34h5.64a.32.32,0,0,0,.34-.29,0,0,0,0,0,0,0v-12c0-2.46.6-5.77,5.73-6.06l1.88,0a.32.32,0,0,0,.35-.29v-5a.33.33,0,0,0-.29-.35h-.06l-1.86,0a9.93,9.93,0,0,0-6.75,3l-.55.51-.51-3.15c-.15-.38-.3-.42-.48-.42Z"/><path id="Path_526" data-name="Path 526" d="M206.44,26.49a.33.33,0,0,0-.35.3V50.21a.33.33,0,0,0,.29.34H212a.33.33,0,0,0,.34-.29v-12c0-2.46.59-5.77,5.72-6.06l1.89,0a.31.31,0,0,0,.34-.29v-5a.32.32,0,0,0-.29-.35H220l-1.86,0a10,10,0,0,0-6.76,3l-.55.51-.51-3.15c-.15-.38-.3-.42-.47-.42Z"/><path id="Path_527" data-name="Path 527" d="M280.74,20.14a.07.07,0,0,0,.06.07h.77a.08.08,0,0,0,.08-.06h0v-1H282l.49,1a.08.08,0,0,0,.09.07h.72a.07.07,0,0,0,.07-.07h0l-.63-1.06a1.07,1.07,0,0,0,.61-1c0-.61-.27-1.21-1.36-1.21h-1.14c-.05,0-.07,0-.07.07ZM282,17.73c.2,0,.38.05.38.31s-.18.29-.38.29h-.38v-.61Z"/><path id="Path_528" data-name="Path 528" d="M278.94,18.64a2.91,2.91,0,1,0,2.9-2.91h0a2.9,2.9,0,0,0-2.9,2.9Zm2.9-2.36a2.36,2.36,0,1,1-2.35,2.36A2.44,2.44,0,0,1,281.84,16.28Z"/><path id="Path_529" data-name="Path 529" d="M127.63,38.51c-.27-7.39-4.64-12-11.38-12S104.9,32,104.9,38.7a11.63,11.63,0,0,0,11.32,11.91h.67a10.08,10.08,0,0,0,8.68-4.4.2.2,0,0,0,0-.27L122,43.2a.2.2,0,0,0-.28,0,5.85,5.85,0,0,1-4.54,2.2,6.11,6.11,0,0,1-5.78-4.54h15.83a.33.33,0,0,0,.33-.3A13.11,13.11,0,0,0,127.63,38.51Zm-16.37-1.79a5.31,5.31,0,0,1,5.17-5,4.86,4.86,0,0,1,5,4.73,1.22,1.22,0,0,1,0,.27Z"/><path id="Path_530" data-name="Path 530" d="M66.8,38.51c-.27-7.39-4.64-12-11.38-12S44.07,32,44.07,38.7A11.63,11.63,0,0,0,55.39,50.61h.67a10.08,10.08,0,0,0,8.68-4.4.2.2,0,0,0,0-.27L61.17,43.2a.2.2,0,0,0-.28,0,5.85,5.85,0,0,1-4.54,2.2,6.11,6.11,0,0,1-5.78-4.54H66.4a.33.33,0,0,0,.33-.3A14.42,14.42,0,0,0,66.8,38.51ZM50.43,36.72a5.31,5.31,0,0,1,5.17-5,4.86,4.86,0,0,1,5,4.73,2.43,2.43,0,0,1,0,.27Z"/><path id="Path_531" data-name="Path 531" class="cls-1" d="M129.47,38.69V38.6a11.87,11.87,0,0,1,11.71-12h.42c4.27,0,7,1.4,9.1,3.72a.24.24,0,0,1,0,.32l-3.7,4a.25.25,0,0,1-.34,0h0a6.63,6.63,0,0,0-5.09-2.37c-3.28,0-5.61,2.9-5.61,6.3v.09c0,3.54,2.29,6.39,5.87,6.39a7.11,7.11,0,0,0,5.1-2.27.31.31,0,0,1,.41,0l3.44,3.48a.31.31,0,0,1,0,.41,11.6,11.6,0,0,1-9.26,4,11.83,11.83,0,0,1-12.05-11.59Z"/><path id="Path_532" data-name="Path 532" d="M51,2a5.62,5.62,0,0,0-4.32-2h-41A5.65,5.65,0,0,0,0,5.65a6,6,0,0,0,.08.94l11,55.17a5.63,5.63,0,0,0,5.57,4.69H35.7a5.63,5.63,0,0,0,5.57-4.69l2.25-11.27H37.06l-1.93,9.65H17.21L6.42,6.32h39.5l-1.84,9.16h6.41l1.77-8.9A5.61,5.61,0,0,0,51,2Z"/></svg>