<svg id="Layer_1" data-name="Layer 1" xmlns="http://www.w3.org/2000/svg" viewBox="0 0 37.88 37.84"><defs><style>.cls-1{fill:#dbdbdb;}</style></defs><path id="Path_471" data-name="Path 471" class="cls-1" d="M37.88,18.93a18.35,18.35,0,0,0-2.56-9.47,19,19,0,0,0-6.9-6.9,18.79,18.79,0,0,0-18.93,0,19.13,19.13,0,0,0-6.91,6.9,18.8,18.8,0,0,0,9.5,27.09,16.65,16.65,0,0,1,.08-5.41l2.14-9.39a6.54,6.54,0,0,1-.54-2.82,5.37,5.37,0,0,1,1-3.29,3,3,0,0,1,2.45-1.3,2.16,2.16,0,0,1,1.75.73,2.72,2.72,0,0,1,.61,1.83,16.5,16.5,0,0,1-.84,3.93A19.23,19.23,0,0,0,18,23.27a2.69,2.69,0,0,0,.53,2.4,2.79,2.79,0,0,0,2.29,1,5,5,0,0,0,4.23-2.44A10.51,10.51,0,0,0,26.81,18a7.41,7.41,0,0,0-2.21-5.53,7.8,7.8,0,0,0-5.73-2.17,8.46,8.46,0,0,0-4.57,1.22,7.87,7.87,0,0,0-2.94,3,8.17,8.17,0,0,0-1,4,7.87,7.87,0,0,0,.38,2.4,6.3,6.3,0,0,0,1,1.95.5.5,0,0,1,.15.53l-.53,2.14c-.05.3-.25.38-.61.22a6.06,6.06,0,0,1-2.79-2.93,9.61,9.61,0,0,1-1.1-4.39,11.33,11.33,0,0,1,1.49-5.69,10.84,10.84,0,0,1,4.15-4.16A14.29,14.29,0,0,1,19.33,7a12.62,12.62,0,0,1,6,1.42,10.52,10.52,0,0,1,4.2,3.93A10.78,10.78,0,0,1,31,18a13.53,13.53,0,0,1-1.26,5.84,10.39,10.39,0,0,1-3.51,4.23,8.52,8.52,0,0,1-5,1.57,5.9,5.9,0,0,1-2.67-.61,3.56,3.56,0,0,1-1.68-1.53L15.67,32a18.79,18.79,0,0,1-2.29,5,18.82,18.82,0,0,0,15-1.71,19.13,19.13,0,0,0,6.9-6.91A18.28,18.28,0,0,0,37.88,18.93Z"/></svg>