<svg id="Layer_1" data-name="Layer 1" xmlns="http://www.w3.org/2000/svg" viewBox="0 0 16.16 13.95"><defs><style>.cls-1{fill:#fff;}</style></defs><path id="Path_693" data-name="Path 693" class="cls-1" d="M3.76,14A3.22,3.22,0,0,1,1,12.58,5.92,5.92,0,0,1,0,9,9.2,9.2,0,0,1,1.68,3.47,11.12,11.12,0,0,1,5.61,0l1.3,1.6q-3,2.55-3.15,5a2.9,2.9,0,0,1,2.45.8,3.63,3.63,0,0,1,1.1,2.8,3.81,3.81,0,0,1-1,2.73A3.44,3.44,0,0,1,3.76,14Zm8.85,0a3.22,3.22,0,0,1-2.75-1.37A5.92,5.92,0,0,1,8.86,9a9.2,9.2,0,0,1,1.67-5.53A11.12,11.12,0,0,1,14.46,0l1.3,1.6q-3,2.55-3.15,5a2.9,2.9,0,0,1,2.45.8,3.63,3.63,0,0,1,1.1,2.8,3.77,3.77,0,0,1-1,2.72A3.41,3.41,0,0,1,12.61,14Z"/></svg>