<svg id="Layer_1" data-name="Layer 1" xmlns="http://www.w3.org/2000/svg" viewBox="0 0 16.16 13.95"><defs><style>.cls-1{fill:#fff;}</style></defs><path id="Path_694" data-name="Path 694" class="cls-1" d="M3.56,0A3.21,3.21,0,0,1,6.31,1.38,6,6,0,0,1,7.31,5a9.26,9.26,0,0,1-1.68,5.53A11.08,11.08,0,0,1,1.71,14l-1.3-1.6c2-1.7,3.05-3.36,3.15-5a2.85,2.85,0,0,1-2.45-.8A3.59,3.59,0,0,1,0,3.75,3.7,3.7,0,0,1,1,1,3.38,3.38,0,0,1,3.56,0Zm8.85,0a3.21,3.21,0,0,1,2.75,1.38,6,6,0,0,1,1,3.57,9.26,9.26,0,0,1-1.68,5.53A11.08,11.08,0,0,1,10.56,14l-1.3-1.6c2-1.7,3.05-3.36,3.15-5A2.85,2.85,0,0,1,10,6.55a3.59,3.59,0,0,1-1.1-2.8A3.7,3.7,0,0,1,9.86,1,3.38,3.38,0,0,1,12.41,0Z"/></svg>