<svg id="Layer_1" data-name="Layer 1" xmlns="http://www.w3.org/2000/svg" viewBox="0 0 42.75 32.05"><defs><style>.cls-1{fill:#86bf70;}</style></defs><g id="Group_443" data-name="Group 443"><path id="Path_659" data-name="Path 659" class="cls-1" d="M40.61,23.5h1.52a.52.52,0,0,1,.5.21,1,1,0,0,1,.11.38c0,.31,0,.62,0,.94a.56.56,0,0,1-.49.61H38.38a5.3,5.3,0,0,1-1.91,5.22A5.13,5.13,0,0,1,32.54,32a5.35,5.35,0,0,1-4.73-5.9c0-.15,0-.31.07-.46h-13a5.28,5.28,0,0,1-1.5,4.84,5.11,5.11,0,0,1-4,1.54,5.14,5.14,0,0,1-4-2,5.28,5.28,0,0,1-1-4.35H4.24c-.37,0-.75,0-1.13,0A3.28,3.28,0,0,1,.16,23.48a3.14,3.14,0,0,1-.16-1V3.17A3,3,0,0,1,1.84.33,3.13,3.13,0,0,1,3.31,0H24.47a3.29,3.29,0,0,1,2.68,1.29,3,3,0,0,1,.63,1.89V6.4H28c.95,0,1.9,0,2.86,0a4.13,4.13,0,0,1,3,1.28l5.55,5.55a4.23,4.23,0,0,1,1.28,3.1V23.5Zm-15,0V3.1a.88.88,0,0,0-.3-.64,1.36,1.36,0,0,0-.94-.33H3.4a2.35,2.35,0,0,0-.59.1,1,1,0,0,0-.67.94c0,2.7,0,5.39,0,8.09V22.49a1,1,0,0,0,.08.39,1,1,0,0,0,.91.6c.72,0,1.45,0,2.18,0a.21.21,0,0,0,.12-.07,5.82,5.82,0,0,1,.89-.9,5.16,5.16,0,0,1,4.23-1.07,5.12,5.12,0,0,1,3.2,1.91.34.34,0,0,0,.29.14q5.72,0,11.43,0Zm12.81-6.4H27.8v6.4c.31,0,.6,0,.9,0a.33.33,0,0,0,.3-.15,5.07,5.07,0,0,1,1.26-1.14,5.16,5.16,0,0,1,3.4-.82,5.06,5.06,0,0,1,2.23.75,5.56,5.56,0,0,1,1.42,1.27s.07.08.11.08c.35,0,.7,0,1,0ZM27.79,14.94H38c-.05-.07-.1-.15-.16-.22L32.26,9.19a2.12,2.12,0,0,0-1.56-.64H27.79ZM29.92,26.7a3.21,3.21,0,1,0,3.21-3.2,3.21,3.21,0,0,0-3.21,3.2ZM9.62,23.5a3.2,3.2,0,0,0-3.2,3.2h0a3.2,3.2,0,1,0,3.2-3.2Z"/></g></svg>