<svg id="Layer_1" data-name="Layer 1" xmlns="http://www.w3.org/2000/svg" viewBox="0 0 39.07 31.75"><defs><style>.cls-1{fill:#dbdbdb;}</style></defs><path id="Path_470" data-name="Path 470" class="cls-1" d="M35,7.94a17.71,17.71,0,0,0,4-4.2A17.38,17.38,0,0,1,34.49,5,8,8,0,0,0,38,.61a16.11,16.11,0,0,1-5.11,1.91A9.07,9.07,0,0,0,30.26.69,7.6,7.6,0,0,0,27,0a7.73,7.73,0,0,0-4,1.07A7.87,7.87,0,0,0,20.14,4a7.9,7.9,0,0,0-1.06,4,11.32,11.32,0,0,0,.15,1.84A22.47,22.47,0,0,1,2.74,1.45a7.79,7.79,0,0,0-.15,7.86,8.82,8.82,0,0,0,2.6,2.9A7.62,7.62,0,0,1,1.6,11.14v.16a7.67,7.67,0,0,0,1.84,5A8,8,0,0,0,8,19.16a10.85,10.85,0,0,1-2.13.23c-.46,0-.94,0-1.45-.08a8,8,0,0,0,2.78,3.93,7.47,7.47,0,0,0,4.7,1.56,15.86,15.86,0,0,1-10,3.44c-.71,0-1.35,0-1.91-.08a23.12,23.12,0,0,0,24.73,0,21.87,21.87,0,0,0,7.71-8.62A22.72,22.72,0,0,0,35.11,8.93,4.67,4.67,0,0,0,35,7.94Z"/></svg>